<?xml version="1.0" standalone="no"?>
<!DOCTYPE svg PUBLIC "-//W3C//DTD SVG 20010904//EN"
 "http://www.w3.org/TR/2001/REC-SVG-20010904/DTD/svg10.dtd">
<svg version="1.0" xmlns="http://www.w3.org/2000/svg"
 width="64.000000pt" height="64.000000pt" viewBox="0 0 64.000000 64.000000"
 preserveAspectRatio="xMidYMid meet">

<g transform="translate(0.000000,64.000000) scale(0.100000,-0.100000)"
fill="#000000" stroke="none">
<path d="M102 581 c-18 -5 -42 -17 -54 -27 -40 -36 -48 -75 -48 -236 0 -169 9
-202 63 -242 27 -20 42 -21 257 -21 215 0 230 1 257 21 54 40 63 73 63 244 0
171 -9 204 -63 244 -26 19 -43 21 -235 23 -114 1 -222 -2 -240 -6z m459 -70
c24 -19 24 -23 24 -191 0 -228 22 -210 -265 -210 -287 0 -265 -18 -265 210 0
228 -22 210 265 210 200 0 220 -2 241 -19z"/>
<path d="M404 465 c-4 -8 -13 -15 -21 -15 -23 0 -63 -47 -63 -73 0 -42 30 -68
95 -81 49 -10 60 -15 60 -31 0 -16 -8 -21 -42 -23 -26 -2 -51 3 -66 13 -21 13
-26 14 -36 1 -18 -21 3 -55 39 -62 16 -4 31 -12 34 -20 7 -19 35 -18 42 1 4 8
14 15 23 15 27 0 61 43 61 77 0 42 -36 69 -100 78 -54 7 -63 14 -54 39 8 21
96 22 114 2 15 -19 40 -9 40 15 0 20 -36 49 -61 49 -9 0 -19 7 -23 15 -3 8
-12 15 -21 15 -9 0 -18 -7 -21 -15z"/>
<path d="M114 435 c-10 -26 7 -35 70 -35 63 0 89 12 79 36 -8 20 -141 20 -149
-1z"/>
<path d="M123 343 c-18 -7 -16 -40 3 -47 20 -8 98 -8 118 0 9 3 16 14 16 24 0
10 -7 21 -16 24 -18 7 -103 7 -121 -1z"/>
<path d="M114 225 c-11 -27 7 -35 76 -35 69 0 93 13 67 39 -17 17 -136 14
-143 -4z"/>
</g>
</svg>
