<?xml version="1.0" standalone="no"?>
<!DOCTYPE svg PUBLIC "-//W3C//DTD SVG 20010904//EN"
 "http://www.w3.org/TR/2001/REC-SVG-20010904/DTD/svg10.dtd">
<svg version="1.0" xmlns="http://www.w3.org/2000/svg"
 width="64.000000pt" height="64.000000pt" viewBox="0 0 64.000000 64.000000"
 preserveAspectRatio="xMidYMid meet">

<g transform="translate(0.000000,64.000000) scale(0.100000,-0.100000)"
fill="#000000" stroke="none">
<path d="M80 592 c-23 -11 -43 -33 -57 -62 -21 -41 -23 -58 -23 -210 0 -152 2
-169 23 -210 38 -74 59 -80 297 -80 238 0 259 6 298 80 20 41 22 58 22 210 0
152 -2 169 -22 210 -38 74 -58 80 -298 80 -175 0 -210 -3 -240 -18z m444 -65
c15 -11 7 -22 -82 -110 -67 -66 -107 -97 -122 -97 -16 0 -55 32 -124 99 -98
98 -100 100 -76 110 39 15 382 14 404 -2z m-351 -187 c123 -124 170 -123 302
1 l85 81 0 -140 c0 -191 12 -182 -240 -182 -252 0 -240 -9 -240 181 0 76 3
139 8 139 4 0 42 -36 85 -80z"/>
</g>
</svg>
