<?xml version="1.0" standalone="no"?>
<!DOCTYPE svg PUBLIC "-//W3C//DTD SVG 20010904//EN"
 "http://www.w3.org/TR/2001/REC-SVG-20010904/DTD/svg10.dtd">
<svg version="1.0" xmlns="http://www.w3.org/2000/svg"
 width="64.000000pt" height="64.000000pt" viewBox="0 0 64.000000 64.000000"
 preserveAspectRatio="xMidYMid meet">

<g transform="translate(0.000000,64.000000) scale(0.100000,-0.100000)"
fill="#000000" stroke="none">
<path d="M172 628 c-7 -7 -12 -20 -12 -30 0 -14 -8 -18 -34 -18 -45 0 -98 -38
-113 -80 -7 -22 -12 -102 -12 -210 -1 -193 6 -223 62 -264 23 -17 43 -21 110
-21 77 0 82 1 85 23 3 21 1 22 -73 22 -71 0 -79 2 -106 29 l-29 29 0 136 0
136 293 2 292 3 3 35 c7 86 -51 160 -124 160 -27 0 -34 4 -34 19 0 22 -25 45
-40 36 -5 -3 -10 -17 -10 -31 0 -24 0 -24 -109 -24 l-110 0 -3 27 c-3 30 -18
39 -36 21z m394 -121 c14 -16 24 -41 24 -58 l0 -29 -270 0 -270 0 0 28 c0 33
24 70 54 82 11 5 115 8 229 7 l209 -2 24 -28z"/>
<path d="M535 310 c-11 -4 -62 -51 -114 -103 -84 -85 -94 -99 -98 -139 -7 -57
11 -73 69 -65 38 5 54 17 145 110 65 65 103 112 103 125 0 25 -37 68 -65 75
-11 3 -29 2 -40 -3z m44 -54 c18 -21 5 -39 -87 -128 -83 -81 -122 -99 -122
-56 0 22 166 198 187 198 6 0 16 -6 22 -14z"/>
<path d="M143 275 c-11 -29 12 -36 118 -33 96 3 104 4 104 23 0 19 -8 20 -108
23 -91 2 -108 0 -114 -13z"/>
<path d="M140 160 c0 -20 5 -21 73 -18 56 2 72 6 72 18 0 12 -16 16 -72 18
-68 3 -73 2 -73 -18z"/>
</g>
</svg>
