<?xml version="1.0" standalone="no"?>
<!DOCTYPE svg PUBLIC "-//W3C//DTD SVG 20010904//EN"
 "http://www.w3.org/TR/2001/REC-SVG-20010904/DTD/svg10.dtd">
<svg version="1.0" xmlns="http://www.w3.org/2000/svg"
 width="64.000000pt" height="64.000000pt" viewBox="0 0 64.000000 64.000000"
 preserveAspectRatio="xMidYMid meet">

<g transform="translate(0.000000,64.000000) scale(0.100000,-0.100000)"
fill="#000000" stroke="none">
<path d="M178 629 c-10 -5 -18 -18 -18 -28 0 -14 -10 -20 -41 -24 -23 -3 -52
-16 -66 -29 -46 -42 -53 -74 -53 -255 0 -200 12 -237 84 -272 38 -19 61 -21
236 -21 175 0 198 2 236 21 72 35 84 72 84 272 0 181 -7 213 -53 255 -14 13
-43 26 -66 29 -31 4 -41 10 -41 24 0 10 -9 23 -20 29 -26 14 -60 -3 -60 -30 0
-18 -7 -20 -80 -20 -73 0 -80 2 -80 20 0 10 -9 24 -19 30 -23 12 -22 12 -43
-1z m382 -369 c0 -192 16 -180 -240 -180 -256 0 -240 -12 -240 180 l0 140 240
0 240 0 0 -140z"/>
<path d="M144 327 c-3 -8 -4 -34 -2 -58 l3 -44 55 0 55 0 0 55 0 55 -53 3
c-38 2 -54 -1 -58 -11z"/>
</g>
</svg>
